<svg xmlns="http://www.w3.org/2000/svg" viewBox="0 0 106 32" fill="none" role="img" aria-labelledby="syclops-title syclops-desc">
  <title id="syclops-title">syclops</title>
  <desc id="syclops-desc">Concentric eye mark with lowercase Syne wordmark</desc>
  <circle cx="16" cy="16" r="14" stroke="#12141a" stroke-width="1.5"/>
  <circle cx="16" cy="16" r="8" stroke="#c45c26" stroke-width="1.4" stroke-dasharray="5 12"/>
  <circle cx="16" cy="16" r="3.2" fill="#c45c26"/>
  <path fill="#12141a" d="M43.1800 18.7370L44.9310 18.7370Q45.0670 19.3830 45.6280 19.7825Q46.1890 20.1820 47.1410 20.1820Q47.7530 20.1820 48.1015 20.0460Q48.4500 19.9100 48.5945 19.6720Q48.7390 19.4340 48.7390 19.1280Q48.7390 18.7540 48.5265 18.5500Q48.3140 18.3460 47.9060 18.2100Q47.4980 18.0740 46.8860 17.9720Q46.2570 17.8190 45.6450 17.6320Q45.0330 17.4450 44.5400 17.1645Q44.0470 16.8840 43.7665 16.4505Q43.4860 16.0170 43.4860 15.3880Q43.4860 14.8100 43.7495 14.3425Q44.0130 13.8750 44.4890 13.5520Q44.9650 13.2290 45.6110 13.0505Q46.2570 12.8720 47.0220 12.8720Q48.1270 12.8720 48.8665 13.2290Q49.6060 13.5860 49.9885 14.2320Q50.3710 14.8780 50.3710 15.7110L48.7050 15.7110Q48.5690 15.0310 48.1780 14.7250Q47.7870 14.4190 47.0050 14.4190Q46.2230 14.4190 45.8150 14.6910Q45.4070 14.9630 45.4070 15.4390Q45.4070 15.7960 45.6705 16.0085Q45.9340 16.2210 46.4270 16.3740Q46.9200 16.5270 47.5830 16.6800Q48.1950 16.8500 48.7390 17.0285Q49.2830 17.2070 49.7165 17.4705Q50.1500 17.7340 50.4050 18.1590Q50.6600 18.5840 50.6600 19.2130Q50.6600 19.9950 50.2435 20.5560Q49.8270 21.1170 49.0450 21.4145Q48.2630 21.7120 47.1580 21.7120Q46.1890 21.7120 45.4835 21.4910Q44.7780 21.2700 44.3105 20.9130Q43.8430 20.5560 43.5880 20.1480Q43.3330 19.7400 43.2395 19.3660Q43.1460 18.9920 43.1800 18.7370M54.9950 21.5250L51.1870 13.0590L53.2100 13.0590L56.6270 21.1850L54.9950 21.5250M58.5990 13.0590L60.6220 13.0590L55.1820 24.9250L53.1930 24.9250L55.5220 20.2840M68.9350 18.2440L70.6690 18.2440Q70.5670 19.3320 69.9720 20.1140Q69.3770 20.8960 68.3825 21.3040Q67.3880 21.7120 66.0960 21.7120Q64.7020 21.7120 63.5715 21.2020Q62.4410 20.6920 61.7780 19.7060Q61.1150 18.7200 61.1150 17.3090Q61.1150 15.8980 61.7780 14.9120Q62.4410 13.9260 63.5715 13.3990Q64.7020 12.8720 66.0960 12.8720Q67.3880 12.8720 68.3740 13.2885Q69.3600 13.7050 69.9550 14.4700Q70.5500 15.2350 70.6520 16.3230L68.9180 16.3230Q68.6290 15.4220 67.8725 14.9205Q67.1160 14.4190 66.0960 14.4190Q65.2630 14.4190 64.5660 14.7505Q63.8690 15.0820 63.4525 15.7195Q63.0360 16.3570 63.0360 17.3090Q63.0360 18.2440 63.4525 18.8900Q63.8690 19.5360 64.5660 19.8505Q65.2630 20.1650 66.0960 20.1650Q67.2180 20.1650 67.9405 19.6635Q68.6630 19.1620 68.9350 18.2440M72.0800 21.5250L72.0800 9.6590L73.9670 9.6590L73.9670 21.5250M80.3420 21.7120Q78.9310 21.7120 77.8090 21.2020Q76.6870 20.6920 76.0410 19.7060Q75.3950 18.7200 75.3950 17.3090Q75.3950 15.9150 76.0410 14.9205Q76.6870 13.9260 77.8090 13.3990Q78.9310 12.8720 80.3420 12.8720Q81.7530 12.8720 82.8580 13.3990Q83.9630 13.9260 84.6005 14.9205Q85.2380 15.9150 85.2380 17.3090Q85.2380 18.7200 84.6005 19.7060Q83.9630 20.6920 82.8580 21.2020Q81.7530 21.7120 80.3420 21.7120M80.3420 20.1650Q81.1580 20.1650 81.8380 19.8420Q82.5180 19.5190 82.9175 18.8730Q83.3170 18.2270 83.3170 17.3090Q83.3170 16.3910 82.9175 15.7450Q82.5180 15.0990 81.8465 14.7505Q81.1750 14.4020 80.3420 14.4020Q79.5090 14.4020 78.8290 14.7420Q78.1490 15.0820 77.7325 15.7280Q77.3160 16.3740 77.3160 17.3090Q77.3160 18.2270 77.7240 18.8730Q78.1320 19.5190 78.8205 19.8420Q79.5090 20.1650 80.3420 20.1650M91.9360 21.7120Q90.8990 21.7120 90.1765 21.3040Q89.4540 20.8960 89.0205 20.2245Q88.5870 19.5530 88.3830 18.7795Q88.1790 18.0060 88.1790 17.3090Q88.1790 16.3740 88.3745 15.5750Q88.5700 14.7760 89.0035 14.1725Q89.4370 13.5690 90.1595 13.2205Q90.8820 12.8720 91.9360 12.8720Q93.1260 12.8720 94.0780 13.4415Q95.0300 14.0110 95.5910 15.0055Q96.1520 16 96.1520 17.3090Q96.1520 18.6180 95.5825 19.6125Q95.0130 20.6070 94.0610 21.1595Q93.1090 21.7120 91.9360 21.7120M91.3750 20.1480Q92.2250 20.1480 92.8710 19.7910Q93.5170 19.4340 93.8740 18.7880Q94.2310 18.1420 94.2310 17.3090Q94.2310 16.0340 93.4830 15.2265Q92.7350 14.4190 91.3750 14.4190Q90.5250 14.4190 89.8450 14.7760Q89.1650 15.1330 88.7740 15.7705Q88.3830 16.4080 88.3830 17.3090Q88.3830 18.1250 88.7400 18.7710Q89.0970 19.4170 89.7600 19.7825Q90.4230 20.1480 91.3750 20.1480M86.4960 24.9250L86.4960 13.0590L88.2980 13.0590L88.3830 15.1330L88.3830 24.9250M97.0360 18.7370L98.7870 18.7370Q98.9230 19.3830 99.4840 19.7825Q100.0450 20.1820 100.9970 20.1820Q101.6090 20.1820 101.9575 20.0460Q102.3060 19.9100 102.4505 19.6720Q102.5950 19.4340 102.5950 19.1280Q102.5950 18.7540 102.3825 18.5500Q102.1700 18.3460 101.7620 18.2100Q101.3540 18.0740 100.7420 17.9720Q100.1130 17.8190 99.5010 17.6320Q98.8890 17.4450 98.3960 17.1645Q97.9030 16.8840 97.6225 16.4505Q97.3420 16.0170 97.3420 15.3880Q97.3420 14.8100 97.6055 14.3425Q97.8690 13.8750 98.3450 13.5520Q98.8210 13.2290 99.4670 13.0505Q100.1130 12.8720 100.8780 12.8720Q101.9830 12.8720 102.7225 13.2290Q103.4620 13.5860 103.8445 14.2320Q104.2270 14.8780 104.2270 15.7110L102.5610 15.7110Q102.4250 15.0310 102.0340 14.7250Q101.6430 14.4190 100.8610 14.4190Q100.0790 14.4190 99.6710 14.6910Q99.2630 14.9630 99.2630 15.4390Q99.2630 15.7960 99.5265 16.0085Q99.7900 16.2210 100.2830 16.3740Q100.7760 16.5270 101.4390 16.6800Q102.0510 16.8500 102.5950 17.0285Q103.1390 17.2070 103.5725 17.4705Q104.0060 17.7340 104.2610 18.1590Q104.5160 18.5840 104.5160 19.2130Q104.5160 19.9950 104.0995 20.5560Q103.6830 21.1170 102.9010 21.4145Q102.1190 21.7120 101.0140 21.7120Q100.0450 21.7120 99.3395 21.4910Q98.6340 21.2700 98.1665 20.9130Q97.6990 20.5560 97.4440 20.1480Q97.1890 19.7400 97.0955 19.3660Q97.0020 18.9920 97.0360 18.7370"/>
</svg>
